<?xml version="1.0" encoding="utf-8"?>
<!-- Generator: Adobe Illustrator 16.0.0, SVG Export Plug-In . SVG Version: 6.00 Build 0)  -->
<!DOCTYPE svg PUBLIC "-//W3C//DTD SVG 1.1//EN" "http://www.w3.org/Graphics/SVG/1.1/DTD/svg11.dtd">
<svg version="1.1" id="Layer_1" xmlns="http://www.w3.org/2000/svg" xmlns:xlink="http://www.w3.org/1999/xlink" x="0px" y="0px"
	 width="139.373px" height="39.992px" viewBox="0 0 139.373 39.992" enable-background="new 0 0 139.373 39.992"
	 xml:space="preserve">
<path fill="#FFFFFF" d="M26.496,4.466c-2.146-0.784-4.046-2.094-6.34-2.438c-1.407-0.21-2.904,0.092-4.224,0.572
	c-2.842,1.035-5.105,3.314-6.937,5.64c-4.103,5.212-6.777,11.812-8.35,18.216c-1.125,4.59-1.311,10.801,3.96,12.827
	c4.898,1.884,10.762-0.269,14.828-3.121c3.045-2.135,7.77-7.115,4.482-10.938c-3.076-3.578-9.219-2.84-12.258,0.344
	c-0.358,0.374-0.008,1.121,0.535,0.921c1.978-0.729,3.699-2.194,5.403-3.394c1.927-1.355,4.256-3.277,6.677-3.561
	c3.584-0.416,0.516,10.655,0.293,12.587c-0.067,0.577,0.762,0.707,1.027,0.278c2.643-4.279,2.846-9.762,6.079-13.697
	c-0.289-0.037-0.577-0.074-0.866-0.111c1.766,3.153,1.729,7.024,1.797,10.541c0.024,1.261-0.015,2.548,0.13,3.802
	c0.07,0.604,0.488,2.135,0.32,2.457c0.207-0.084,0.415-0.169,0.622-0.253c0.019-0.029,0.037-0.059,0.055-0.089
	c-0.346-0.62-1.297-0.064-0.952,0.557c0.145,0.258,0.292,0.529,0.604,0.595c0.234,0.049,0.503-0.025,0.622-0.254
	c0.341-0.652,0.029-1.645-0.07-2.332c-0.213-1.484-0.203-2.984-0.229-4.482c-0.068-3.715-0.084-7.769-1.948-11.098
	c-0.162-0.289-0.639-0.388-0.866-0.111c-3.322,4.044-3.547,9.543-6.252,13.92c0.343,0.094,0.686,0.187,1.027,0.278
	c0.312-2.7,1.041-5.339,1.321-8.05c0.166-1.606,0.474-4.897-1.623-5.512c-2.123-0.622-4.507,1.056-6.188,2.131
	c-2.358,1.508-4.627,3.757-7.277,4.734c0.178,0.308,0.357,0.615,0.536,0.922c2.319-2.43,6.148-3.083,9.16-1.585
	c3.625,1.802,2.094,5.69-0.007,8.048c-3.62,4.062-10.166,7.055-15.635,5.755c-6.705-1.593-4.948-9.732-3.498-14.548
	c1.999-6.637,5.197-13.911,10.617-18.462c1.514-1.27,3.36-2.196,5.334-2.435c2.869-0.346,5.227,1.47,7.794,2.406
	C26.872,5.772,27.158,4.706,26.496,4.466L26.496,4.466z"/>
<path fill="#FFFFFF" d="M28.468,29.694c2.616-0.888,5.525-2.118,8.338-1.727c0.695,0.099,0.995-0.963,0.293-1.062
	c-3.057-0.427-6.078,0.76-8.924,1.726C27.506,28.859,27.793,29.924,28.468,29.694L28.468,29.694z"/>
<path fill="#FFFFFF" d="M37.142,16.833c0.035,4.615,0.704,9.195,0.739,13.81c0.361-0.049,0.723-0.097,1.083-0.146
	c-1.222-3.526-0.237-8.801,2.325-11.549c-0.26,0-0.52,0-0.78,0c1.888,1.953,0.344,4.685-0.579,6.731
	c-0.175,0.39,0.033,0.8,0.476,0.829c1.633,0.107,3.409,0.362,4.715,1.438c1.811,1.489-0.252,3.688-1.406,4.773
	c-0.167,0.155-0.227,0.474-0.087,0.668c2.461,3.395,7.049,1.896,9.844-0.273c1.196-0.929,2.557-2.183,2.812-3.758
	c0.172-1.058-0.534-2.01-1.608-2.08c-3.856-0.253-6.549,12.523,1.79,8.774c0.647-0.29,0.085-1.239-0.558-0.952
	c-2.16,0.972-3.991,0.768-3.818-1.93c0.099-1.548,0.835-3.744,2.188-4.65c0.887-0.592,0.992,0.678,0.74,1.25
	c-0.487,1.107-1.545,1.99-2.497,2.687c-2.179,1.592-5.996,3.059-7.941,0.377c-0.029,0.221-0.058,0.444-0.086,0.667
	c1.519-1.428,3.051-3.297,2.101-5.452c-0.936-2.122-4.229-2.512-6.189-2.641c0.158,0.277,0.316,0.554,0.476,0.83
	c1.164-2.582,2.725-5.668,0.407-8.066c-0.204-0.211-0.577-0.218-0.78,0c-2.823,3.028-3.96,8.717-2.608,12.62
	c0.198,0.572,1.088,0.5,1.083-0.147c-0.035-4.614-0.704-9.194-0.74-13.81C38.238,16.123,37.137,16.122,37.142,16.833L37.142,16.833z
	"/>
<path fill="#FFFFFF" d="M58.261,12.851c-0.612,0.138,1.432-4.026,1.854-4.616c-0.335-0.044-0.671-0.088-1.007-0.132
	c1.311,4.464,1.406,9.118,1.479,13.736c0.037,2.36,0.073,4.722,0.229,7.077c0.173,2.625,0.418,5.383,0.02,7.993
	c0.361,0.048,0.721,0.096,1.083,0.146c-0.257-11.903-0.909-25.116,4.117-36.22c-0.343-0.093-0.684-0.185-1.027-0.278
	C65.736,11.211,65.052,21.966,67,32.517c0.098,0.53,0.959,0.524,1.063,0c1.984-10.086-0.572-22.16,5.863-30.941
	c-0.336-0.044-0.672-0.088-1.008-0.132c2.38,7.362,3.042,15.583,3.111,23.304c0.026,3.017,0.003,6.042,0.303,9.047
	c0.16,1.605,0.316,3.948,1.771,4.97c0.583,0.409,1.133-0.547,0.556-0.951c-1.514-1.064-1.317-4.82-1.401-6.401
	c-0.15-2.819-0.094-5.646-0.152-8.468C76.959,15.749,76.2,8.013,73.981,1.15c-0.155-0.481-0.727-0.513-1.007-0.132
	C66.452,9.92,69.006,22.025,67,32.223c0.354,0,0.708,0,1.063,0c-1.93-10.447-1.233-21.113-1.953-31.665
	c-0.034-0.493-0.782-0.819-1.027-0.277c-5.118,11.304-4.53,24.653-4.268,36.775c0.013,0.598,0.985,0.779,1.083,0.146
	c0.73-4.778-0.125-9.888-0.199-14.71c-0.076-4.929-0.128-9.915-1.527-14.682c-0.144-0.488-0.736-0.511-1.007-0.132
	c-0.708,0.985-4.194,7.044-0.611,6.234C59.248,13.757,58.953,12.692,58.261,12.851L58.261,12.851z"/>
<path fill="#FFFFFF" d="M80.212,34.485c-0.036-0.042,0.348,0.337,0.365,0.374c0.028-0.224,0.057-0.444,0.085-0.668
	c-0.068,0.086-0.136,0.17-0.204,0.254c0.307,0.18,0.614,0.357,0.921,0.537c0.8-5.398,1.25-11.162,3.644-16.145
	c-0.336-0.044-0.672-0.089-1.007-0.133c0.553,3.399,0.143,7.112,0.092,10.537c-0.027,1.78-0.06,3.561-0.036,5.341
	c0.008,0.521-0.163,1.9,0.443,2.208c0.633,0.321,1.191-0.631,0.558-0.952c0.362,0.185,0.143-0.039,0.12-0.583
	c-0.031-0.69-0.026-1.384-0.026-2.074c0.002-1.841,0.04-3.683,0.067-5.524c0.045-3.025,0.334-6.242-0.154-9.244
	c-0.076-0.464-0.81-0.544-1.007-0.131c-2.444,5.088-2.938,10.895-3.755,16.406c-0.07,0.473,0.532,1.021,0.922,0.536
	c0.068-0.084,0.136-0.168,0.204-0.254c0.173-0.214,0.196-0.416,0.086-0.668c-0.116-0.267-0.349-0.372-0.538-0.598
	C80.535,33.16,79.76,33.944,80.212,34.485L80.212,34.485z"/>
<path fill="#FFFFFF" d="M80.57,31.646c-0.36,0.192-0.719,0.563-0.465,0.996c0.22,0.375,0.733,0.365,1.112,0.371
	c1.363,0.018,2.818-0.34,4.169-0.112c0.695,0.116,0.993-0.945,0.293-1.063c-0.904-0.151-1.845-0.052-2.755,0
	c-0.474,0.028-0.947,0.056-1.422,0.069c-0.176,0.005-0.353,0.004-0.529-0.002c-0.402-0.016-0.214,0.888,0.152,0.694
	C81.754,32.265,81.198,31.313,80.57,31.646L80.57,31.646z"/>
<path fill="#FFFFFF" d="M87.962,20.679c1.568,5.347,0.507,11.148,0.473,16.622c0.368,0,0.734,0,1.103,0
	c-0.496-4.499,0.005-9.488,0.678-13.937c0.081-0.533,0.765-5.072,1.804-4.52c1.529,0.815,1.409,3.283,1.121,4.672
	c-0.413,1.993-1.753,4.273-3.808,4.87c-0.362,0.104-0.484,0.488-0.33,0.809c1.787,3.72,5.439,7.37,9.843,5.261
	c2.802-1.341,3.962-4.988,4.57-7.769c0.809-3.705,0.836-7.663,0.309-11.407c-0.403-2.851-1.051-6.381-3.251-8.454
	c-0.323-0.305-0.772-0.141-0.921,0.243c-0.957,2.451-0.971,5.385-1.014,7.973c-0.061,3.625,0.234,7.301,1.046,10.838
	c0.574,2.502,1.541,5.414,3.786,6.902c3.476,2.305,6.202-1.271,7.184-4.275c0.079-0.241-0.051-0.495-0.253-0.623
	c-0.018-0.011-0.035-0.021-0.051-0.033c-0.167-0.105-0.389-0.093-0.558,0c-0.185,0.094-0.358,0.208-0.517,0.343
	c-0.57,0.413-0.022,1.37,0.556,0.953c0.449-0.198,0.453-0.303,0.013-0.312c-0.084-0.207-0.168-0.413-0.253-0.621
	c-0.59,1.801-1.685,4.074-3.827,4.158c-1.346,0.054-2.444-0.968-3.146-1.986c-1.474-2.14-1.991-4.954-2.384-7.47
	c-0.464-2.969-0.563-6.008-0.47-9.008c0.068-2.15,0.156-4.516,0.947-6.546c-0.307,0.081-0.613,0.162-0.921,0.243
	c1.805,1.701,2.384,4.538,2.801,6.877c0.576,3.229,0.592,6.588,0.208,9.838c-0.336,2.831-1.091,6.018-3.074,8.172
	c-1.16,1.258-2.804,1.669-4.473,1.366c-2.54-0.457-4.177-3.09-5.2-5.22c-0.11,0.27-0.22,0.54-0.33,0.81
	c3.845-1.114,5.84-6.613,4.223-10.099c-0.984-2.122-2.958-2.059-3.795,0.036c-1.192,2.99-1.31,6.513-1.504,9.687
	c-0.164,2.688-0.412,5.54-0.115,8.229c0.077,0.691,1.098,0.728,1.103,0c0.035-5.582,1.087-11.459-0.514-16.915
	C88.825,19.706,87.76,19.995,87.962,20.679L87.962,20.679z"/>
<path fill="#FFFFFF" d="M98.257,22.297c3.023-0.682,6.081-0.461,9.078,0.247c0.691,0.162,0.985-0.899,0.293-1.064
	c-3.189-0.752-6.45-0.971-9.665-0.245C97.271,21.391,97.565,22.453,98.257,22.297L98.257,22.297z"/>
<path fill="#FFFFFF" d="M114.633,21.708c-1.253-0.023-1.327,3.984-1.414,4.767c-0.22,1.997-0.323,4.566,1.645,5.779
	c3.068,1.89,5.589-7.205,6.656-8.73c-0.335-0.044-0.671-0.088-1.006-0.132c0.724,2.503,0.36,5.14,1.535,7.529
	c0.168,0.345,0.611,0.322,0.865,0.112c1.784-1.477,2.572-4.39,4.936-5.038c-0.225-0.127-0.452-0.256-0.678-0.383
	c0.722,2.995-0.125,6.774,2.712,8.842c2.917,2.124,7.223-1.649,9.306-3.421c0.542-0.461-0.242-1.236-0.779-0.779
	c-1.965,1.671-5.913,5.192-8.454,2.847c-1.894-1.748-1.167-5.477-1.722-7.782c-0.071-0.293-0.396-0.462-0.678-0.385
	c-2.704,0.738-3.43,3.67-5.423,5.32c0.289,0.036,0.577,0.074,0.866,0.111c-1.116-2.272-0.733-4.878-1.424-7.267
	c-0.14-0.484-0.74-0.514-1.007-0.132c-1.744,2.494-2.087,6-4.393,8.124c-1.671,1.537-1.966-3.07-1.924-3.808
	c0.059-1.003,0.209-2,0.382-2.988c0.071-0.399,0.158-0.797,0.252-1.192c0.164-0.688,0.267-0.282-0.253-0.293
	C115.344,22.822,115.343,21.721,114.633,21.708L114.633,21.708z"/>
<path fill="#FFFFFF" d="M116.15,10.522c-0.015-0.051-0.028-0.1-0.039-0.151c0.009,0.077,0.012,0.086,0.011,0.028
	c0,0.06-0.015,0.114-0.046,0.166c-0.067,0.137-0.21,0.183-0.303,0.187c0.079-0.004-0.131-0.033,0.019,0.009
	c0.127,0.037-0.109-0.055,0.02,0.007c0.055,0.025,0.108,0.057,0.16,0.09c0.018,0.011,0.173,0.127,0.091,0.062
	c0.054,0.044,0.104,0.091,0.154,0.14c0.508,0.496,1.289-0.282,0.778-0.779c-0.326-0.319-0.75-0.612-1.222-0.628
	c-0.271-0.012-0.501,0.141-0.649,0.357c-0.157,0.229-0.113,0.559-0.036,0.806c0.089,0.287,0.381,0.468,0.678,0.385
	C116.048,11.122,116.239,10.81,116.15,10.522L116.15,10.522z"/>
</svg>
